<?xml version="1.0" standalone="no"?>
<!DOCTYPE svg PUBLIC "-//W3C//DTD SVG 20010904//EN"
 "http://www.w3.org/TR/2001/REC-SVG-20010904/DTD/svg10.dtd">
<svg version="1.0" xmlns="http://www.w3.org/2000/svg"
 width="125.000000pt" height="125.000000pt" viewBox="0 0 125.000000 125.000000"
 preserveAspectRatio="xMidYMid meet">
<metadata>
Created by potrace 1.11, written by Peter Selinger 2001-2013
</metadata>
<g transform="translate(0.000000,125.000000) scale(0.100000,-0.100000)"
fill="#000000" stroke="none">
<path d="M548 1183 c-28 -7 -22 -31 6 -26 32 7 93 -14 100 -33 10 -27 -3 -33
-40 -18 -41 17 -74 10 -74 -16 0 -22 -58 -45 -95 -38 -23 5 -41 -14 -30 -32
20 -33 154 1 141 36 -5 13 -2 15 16 9 48 -15 61 -10 89 30 16 22 28 45 29 51
0 25 -94 50 -142 37z"/>
<path d="M473 1133 c-42 -5 -45 -33 -4 -33 16 0 36 3 45 6 19 7 22 35 4 32 -7
0 -28 -3 -45 -5z"/>
<path d="M280 980 c0 -20 7 -62 15 -93 23 -87 20 -96 -36 -149 l-52 -49 34 2
c19 1 58 15 87 32 29 16 59 26 67 23 8 -3 28 -32 44 -64 17 -33 53 -88 80
-122 75 -93 68 -112 -47 -141 -53 -13 -63 -18 -47 -25 11 -4 23 -12 27 -18 4
-6 42 -11 90 -11 91 0 103 -5 137 -52 47 -69 55 -28 12 63 l-29 62 54 28 c30
15 49 31 43 35 -7 4 -2 13 12 23 26 18 43 21 34 6 -9 -14 -4 -13 50 11 56 25
72 16 82 -47 6 -36 17 -53 36 -54 4 0 7 9 7 21 0 18 2 19 15 5 18 -18 19 -30
2 -45 -10 -8 -17 -7 -26 2 -10 9 -11 8 -6 -5 4 -10 11 -18 17 -18 5 0 6 -5 3
-11 -4 -6 -10 -8 -13 -5 -3 3 -12 -3 -20 -15 -11 -15 -21 -19 -41 -14 -18 4
-22 3 -12 -4 12 -7 12 -13 3 -24 -7 -7 -9 -17 -5 -21 4 -4 -1 -4 -11 0 -12 5
-23 2 -30 -7 -6 -8 -24 -14 -41 -15 -17 0 -29 -6 -28 -12 2 -7 -9 -14 -25 -18
-24 -5 -102 -28 -142 -42 -8 -3 -21 -4 -29 -3 -8 1 -10 -2 -5 -10 9 -16 -13
-3 -44 25 -19 17 -22 17 -16 3 4 -12 1 -17 -10 -17 -17 0 -39 -33 -29 -44 3
-3 1 -6 -5 -6 -16 0 -15 5 4 41 18 36 13 59 -14 59 -10 0 -23 5 -30 12 -8 8
-15 8 -26 -1 -10 -8 -21 -9 -33 -3 -10 5 -24 7 -30 5 -8 -3 -13 4 -13 16 0 12
-4 21 -10 21 -5 0 -18 9 -29 21 -21 23 -41 18 -75 -20 -18 -20 -19 -23 -3 -38
15 -16 18 -15 42 7 14 13 25 18 25 12 0 -6 -11 -19 -24 -28 -14 -8 -22 -22
-20 -29 9 -23 36 -26 57 -8 19 17 20 17 10 -1 -6 -10 -8 -27 -6 -37 3 -11 0
-19 -6 -19 -5 0 -8 7 -5 15 4 8 1 15 -5 15 -6 0 -11 -4 -11 -10 0 -5 -7 -7
-15 -4 -8 4 -13 10 -10 14 8 13 -15 24 -26 13 -10 -10 54 -67 121 -105 130
-75 305 -92 454 -44 44 14 84 22 89 19 6 -3 7 -1 3 5 -7 12 45 44 66 40 7 -2
12 2 13 7 1 20 17 36 32 31 8 -3 12 -2 9 3 -3 4 4 17 17 27 21 19 21 19 7 -1
-14 -18 -14 -19 2 -7 10 8 17 17 16 20 -3 23 4 33 18 28 9 -3 12 -2 9 5 -8 12
14 41 25 34 4 -3 14 3 21 13 13 15 12 16 -3 3 -24 -18 -23 -16 16 65 40 81 52
124 62 219 6 64 5 69 -10 56 -17 -14 -21 -36 -8 -44 4 -2 1 -2 -5 -1 -17 4
-17 -13 0 -19 7 -4 6 -6 -5 -6 -9 -1 -19 -7 -21 -13 -3 -7 -3 3 0 22 3 19 12
46 20 58 8 13 13 26 10 28 -2 3 -14 -11 -26 -31 -11 -20 -25 -33 -31 -30 -5 3
-1 14 10 25 23 23 24 36 7 69 -23 46 -97 34 -97 -17 0 -20 -3 -23 -10 -12 -8
12 -16 12 -61 -2 -55 -18 -69 -16 -69 8 0 8 -8 31 -19 52 -38 78 -34 132 11
132 12 0 17 4 12 12 -5 8 -2 9 9 5 10 -3 17 -2 17 3 0 5 -18 14 -40 20 -31 8
-44 19 -60 48 l-19 37 -1 -52 0 -53 -42 0 c-42 -1 -42 -1 -18 -15 14 -7 25
-22 25 -32 0 -11 7 -18 19 -18 32 0 66 -54 66 -108 0 -44 -1 -46 -20 -35 -26
17 -36 3 -20 -27 12 -23 11 -28 -16 -56 -28 -30 -51 -43 -98 -55 -20 -5 -25 0
-34 25 -6 17 -15 31 -20 31 -16 0 -34 -29 -28 -45 7 -19 2 -17 -80 38 -56 36
-62 44 -73 89 -6 27 -11 63 -11 79 l0 29 20 -20 c26 -26 50 -26 50 0 0 13 -12
28 -30 38 -16 9 -30 21 -30 25 0 12 53 101 62 105 4 2 8 10 8 18 0 8 7 29 16
47 15 32 15 31 -22 -8 -21 -22 -55 -59 -76 -82 -63 -70 -100 -58 -153 52 -33
67 -34 69 -35 35z m789 -363 c8 -11 5 -13 -19 -9 -27 4 -30 1 -30 -22 0 -16 6
-26 14 -26 9 0 12 -7 9 -20 -3 -11 1 -28 8 -37 13 -15 12 -15 -9 -4 -13 7 -29
10 -36 8 -17 -7 -36 57 -22 75 12 16 57 48 67 48 4 0 11 -6 18 -13z m71 -132
c-7 -9 -15 -13 -19 -10 -3 3 1 10 9 15 21 14 24 12 10 -5z m-62 -54 c10 -6 9
-10 -7 -14 -14 -3 -21 0 -21 9 0 16 9 18 28 5z m-78 -111 c0 -5 -2 -10 -4 -10
-3 0 -8 5 -11 10 -3 6 -1 10 4 10 6 0 11 -4 11 -10z m-627 -105 c-3 -9 -8 -14
-10 -11 -3 3 -2 9 2 15 9 16 15 13 8 -4z m52 -34 c-8 -17 -21 -33 -27 -37 -8
-5 -7 1 3 16 8 14 19 31 23 38 15 25 16 11 1 -17z m210 20 c3 -5 1 -12 -5 -16
-5 -3 -10 1 -10 9 0 18 6 21 15 7z m-270 -51 c4 -6 -5 -5 -19 2 -14 6 -26 15
-26 20 0 10 36 -7 45 -22z m102 -22 c-3 -8 -6 -5 -6 6 -1 11 2 17 5 13 3 -3 4
-12 1 -19z m-32 -8 c3 -6 -1 -7 -9 -4 -18 7 -21 14 -7 14 6 0 13 -4 16 -10z"/>
<path d="M605 900 c-11 -21 -26 -33 -46 -37 -34 -6 -21 -23 18 -23 30 0 31 -5
24 -85 -6 -68 -7 -70 -31 -66 -24 3 -24 2 -8 -16 9 -10 21 -30 26 -43 l10 -25
12 26 c9 19 18 25 31 22 20 -6 26 11 8 22 -6 4 -8 13 -5 21 3 8 -1 14 -8 14
-20 0 -28 44 -14 74 8 18 15 23 23 16 14 -12 25 -3 25 21 0 11 10 21 25 25 39
10 29 23 -11 17 -42 -7 -66 13 -57 47 8 30 -4 24 -22 -10z"/>
<path d="M746 785 c-3 -9 -10 -13 -16 -10 -5 3 -10 -3 -10 -14 0 -12 5 -21 10
-21 6 0 10 -8 10 -17 1 -16 2 -15 12 2 6 11 16 23 21 26 6 4 4 15 -5 28 -13
19 -16 20 -22 6z"/>
<path d="M670 744 c0 -8 4 -13 9 -10 5 4 11 1 13 -6 3 -7 7 -2 10 10 5 17 2
22 -13 22 -11 0 -19 -7 -19 -16z"/>
<path d="M97 704 c-13 -14 7 -34 34 -34 40 0 37 -18 -3 -22 -45 -4 -45 -32 0
-36 43 -4 41 -22 -3 -22 -28 0 -35 -4 -35 -19 0 -16 8 -20 41 -23 l41 -3 -32
-24 c-29 -21 -34 -22 -42 -7 -13 24 -28 20 -28 -8 0 -34 18 -44 89 -52 58 -6
63 -5 59 12 -2 12 -15 21 -33 24 -29 6 -29 6 -7 14 21 7 23 12 17 44 -4 21 -7
65 -6 100 l1 62 -43 0 c-24 0 -46 -3 -50 -6z"/>
<path d="M710 675 l-22 -12 21 -6 c11 -3 21 -13 21 -22 0 -23 31 -15 40 10 11
28 -28 47 -60 30z"/>
<path d="M1222 570 c0 -14 2 -19 5 -12 2 6 2 18 0 25 -3 6 -5 1 -5 -13z"/>
<path d="M1211 494 c0 -11 3 -14 6 -6 3 7 2 16 -1 19 -3 4 -6 -2 -5 -13z"/>
<path d="M218 388 c-52 -32 -54 -36 -35 -61 11 -16 16 -15 62 18 28 19 50 40
49 45 -3 26 -5 30 -16 29 -7 0 -34 -14 -60 -31z"/>
<path d="M192 251 c-10 -6 -10 -10 3 -21 12 -10 18 -11 28 -1 9 10 8 11 -7 5
-16 -6 -18 -4 -13 9 7 19 7 20 -11 8z"/>
<path d="M593 13 c15 -2 39 -2 55 0 15 2 2 4 -28 4 -30 0 -43 -2 -27 -4z"/>
</g>
</svg>
